HIERARCHY
ROOT Root
{
  OFFSET 0.0 0.0 0.0
  CHANNELS 6 Xposition Yposition Zposition Zrotation Yrotation Xrotation
  JOINT Hips
  {
    OFFSET 0.0 100.0 0.0
    CHANNELS 6 Xposition Yposition Zposition Zrotation Yrotation Xrotation
    JOINT Spine1
    {
      OFFSET 5.003913 -0.037094 -0.013727
      CHANNELS 3 Zrotation Yrotation Xrotation
      JOINT Spine2
      {
        OFFSET 7.125363 -1e-06 0.0
        CHANNELS 3 Zrotation Yrotation Xrotation
        JOINT Chest
        {
          OFFSET 7.594027 1e-06 0.0
          CHANNELS 3 Zrotation Yrotation Xrotation
          JOINT Neck1
          {
            OFFSET 26.313086 -0.460272 -0.181672
            CHANNELS 3 Zrotation Yrotation Xrotation
            JOINT Neck2
            {
              OFFSET 8.045911 0.0 0.0
              CHANNELS 3 Zrotation Yrotation Xrotation
              JOINT Head
              {
                OFFSET 6.432774 0.0 0.0
                CHANNELS 3 Zrotation Yrotation Xrotation
                JOINT HeadEnd
                {
                  OFFSET 16.169773 0.06451 0.00362
                  CHANNELS 3 Zrotation Yrotation Xrotation
                }
                JOINT Jaw
                {
                  OFFSET 0.108741 3.12938 0.002639
                  CHANNELS 3 Zrotation Yrotation Xrotation
                }
                JOINT LeftEye
                {
                  OFFSET 4.45173 8.166359 3.206392
                  CHANNELS 3 Zrotation Yrotation Xrotation
                }
                JOINT RightEye
                {
                  OFFSET 4.436895 8.135758 -3.222429
                  CHANNELS 3 Zrotation Yrotation Xrotation
                }
              }
            }
          }
          JOINT LeftShoulder
          {
            OFFSET 23.218927 5.195579 1.621656
            CHANNELS 3 Zrotation Yrotation Xrotation
            JOINT LeftArm
            {
              OFFSET 15.902118 2e-06 -2e-06
              CHANNELS 3 Zrotation Yrotation Xrotation
              JOINT LeftForeArm
              {
                OFFSET 28.739307 0.0 -1e-06
                CHANNELS 3 Zrotation Yrotation Xrotation
                JOINT LeftHand
                {
                  OFFSET 27.093981 -4e-06 0.0
                  CHANNELS 3 Zrotation Yrotation Xrotation
                  JOINT LeftHandThumb1
                  {
                    OFFSET 2.276781 3.380274 0.83384
                    CHANNELS 3 Zrotation Yrotation Xrotation
                    JOINT LeftHandThumb2
                    {
                      OFFSET 4.705309 -1e-06 -1e-06
                      CHANNELS 3 Zrotation Yrotation Xrotation
                      JOINT LeftHandThumb3
                      {
                        OFFSET 2.798515 0.0 3e-06
                        CHANNELS 3 Zrotation Yrotation Xrotation
                        JOINT LeftHandThumbEnd
                        {
                          OFFSET 3.180793 4e-06 -4e-06
                          CHANNELS 3 Zrotation Yrotation Xrotation
                        }
                      }
                    }
                  }
                  JOINT LeftHandIndex1
                  {
                    OFFSET 3.247786 2.352677 0.137192
                    CHANNELS 3 Zrotation Yrotation Xrotation
                    JOINT LeftHandIndex2
                    {
                      OFFSET 6.367095 1e-06 0.0
                      CHANNELS 3 Zrotation Yrotation Xrotation
                      JOINT LeftHandIndex3
                      {
                        OFFSET 3.662364 0.0 0.0
                        CHANNELS 3 Zrotation Yrotation Xrotation
                        JOINT LeftHandIndex4
                        {
                          OFFSET 2.329242 4e-06 -4e-06
                          CHANNELS 3 Zrotation Yrotation Xrotation
                          JOINT LeftHandIndexEnd
                          {
                            OFFSET 2.767823 1e-06 0.0
                            CHANNELS 3 Zrotation Yrotation Xrotation
                          }
                        }
                      }
                    }
                  }
                  JOINT LeftHandMiddle1
                  {
                    OFFSET 3.163612 0.945023 -0.406112
                    CHANNELS 3 Zrotation Yrotation Xrotation
                    JOINT LeftHandMiddle2
                    {
                      OFFSET 6.276789 3e-06 0.0
                      CHANNELS 3 Zrotation Yrotation Xrotation
                      JOINT LeftHandMiddle3
                      {
                        OFFSET 4.35652 -1e-06 4e-06
                        CHANNELS 3 Zrotation Yrotation Xrotation
                        JOINT LeftHandMiddle4
                        {
                          OFFSET 2.996877 0.0 8e-06
                          CHANNELS 3 Zrotation Yrotation Xrotation
                          JOINT LeftHandMiddleEnd
                          {
                            OFFSET 2.323256 3e-06 -4e-06
                            CHANNELS 3 Zrotation Yrotation Xrotation
                          }
                        }
                      }
                    }
                  }
                  JOINT LeftHandRing1
                  {
                    OFFSET 2.882606 -0.309162 0.107445
                    CHANNELS 3 Zrotation Yrotation Xrotation
                    JOINT LeftHandRing2
                    {
                      OFFSET 6.033198 0.0 4e-06
                      CHANNELS 3 Zrotation Yrotation Xrotation
                      JOINT LeftHandRing3
                      {
                        OFFSET 4.350578 3e-06 0.0
                        CHANNELS 3 Zrotation Yrotation Xrotation
                        JOINT LeftHandRing4
                        {
                          OFFSET 2.651321 2e-06 -7e-06
                          CHANNELS 3 Zrotation Yrotation Xrotation
                          JOINT LeftHandRingEnd
                          {
                            OFFSET 1.937663 1e-06 -4e-06
                            CHANNELS 3 Zrotation Yrotation Xrotation
                          }
                        }
                      }
                    }
                  }
                  JOINT LeftHandPinky1
                  {
                    OFFSET 2.865315 -1.525436 0.575687
                    CHANNELS 3 Zrotation Yrotation Xrotation
                    JOINT LeftHandPinky2
                    {
                      OFFSET 5.54936 1e-06 -8e-06
                      CHANNELS 3 Zrotation Yrotation Xrotation
                      JOINT LeftHandPinky3
                      {
                        OFFSET 3.070974 0.0 -4e-06
                        CHANNELS 3 Zrotation Yrotation Xrotation
                        JOINT LeftHandPinky4
                        {
                          OFFSET 1.549672 1e-06 0.0
                          CHANNELS 3 Zrotation Yrotation Xrotation
                          JOINT LeftHandPinkyEnd
                          {
                            OFFSET 1.952123 0.0 0.0
                            CHANNELS 3 Zrotation Yrotation Xrotation
                          }
                        }
                      }
                    }
                  }
                }
              }
            }
          }
          JOINT RightShoulder
          {
            OFFSET 23.161716 5.296122 -1.380114
            CHANNELS 3 Zrotation Yrotation Xrotation
            JOINT RightArm
            {
              OFFSET -16.027195 -2e-06 1.1e-05
              CHANNELS 3 Zrotation Yrotation Xrotation
              JOINT RightForeArm
              {
                OFFSET -28.736639 4e-06 2e-06
                CHANNELS 3 Zrotation Yrotation Xrotation
                JOINT RightHand
                {
                  OFFSET -27.133619 6e-06 0.0
                  CHANNELS 3 Zrotation Yrotation Xrotation
                  JOINT RightHandThumb1
                  {
                    OFFSET -2.274328 -3.351035 -0.83067
                    CHANNELS 3 Zrotation Yrotation Xrotation
                    JOINT RightHandThumb2
                    {
                      OFFSET -4.703594 -3e-06 2e-06
                      CHANNELS 3 Zrotation Yrotation Xrotation
                      JOINT RightHandThumb3
                      {
                        OFFSET -2.794935 -4e-06 -3e-06
                        CHANNELS 3 Zrotation Yrotation Xrotation
                        JOINT RightHandThumbEnd
                        {
                          OFFSET -3.183852 4e-06 1e-06
                          CHANNELS 3 Zrotation Yrotation Xrotation
                        }
                      }
                    }
                  }
                  JOINT RightHandIndex1
                  {
                    OFFSET -3.253496 -2.33755 -0.127667
                    CHANNELS 3 Zrotation Yrotation Xrotation
                    JOINT RightHandIndex2
                    {
                      OFFSET -6.344434 0.0 0.0
                      CHANNELS 3 Zrotation Yrotation Xrotation
                      JOINT RightHandIndex3
                      {
                        OFFSET -3.654871 0.0 -8e-06
                        CHANNELS 3 Zrotation Yrotation Xrotation
                        JOINT RightHandIndex4
                        {
                          OFFSET -2.327586 -1e-06 0.0
                          CHANNELS 3 Zrotation Yrotation Xrotation
                          JOINT RightHandIndexEnd
                          {
                            OFFSET -2.770001 3e-06 8e-06
                            CHANNELS 3 Zrotation Yrotation Xrotation
                          }
                        }
                      }
                    }
                  }
                  JOINT RightHandMiddle1
                  {
                    OFFSET -3.168223 -0.944764 0.411762
                    CHANNELS 3 Zrotation Yrotation Xrotation
                    JOINT RightHandMiddle2
                    {
                      OFFSET -6.266691 -1e-06 -4e-06
                      CHANNELS 3 Zrotation Yrotation Xrotation
                      JOINT RightHandMiddle3
                      {
                        OFFSET -4.348901 0.0 0.0
                        CHANNELS 3 Zrotation Yrotation Xrotation
                        JOINT RightHandMiddle4
                        {
                          OFFSET -3.00024 2e-06 -4e-06
                          CHANNELS 3 Zrotation Yrotation Xrotation
                          JOINT RightHandMiddleEnd
                          {
                            OFFSET -2.321477 -4e-06 -4e-06
                            CHANNELS 3 Zrotation Yrotation Xrotation
                          }
                        }
                      }
                    }
                  }
                  JOINT RightHandRing1
                  {
                    OFFSET -2.885654 0.293261 -0.119232
                    CHANNELS 3 Zrotation Yrotation Xrotation
                    JOINT RightHandRing2
                    {
                      OFFSET -6.032835 -1e-06 -4e-06
                      CHANNELS 3 Zrotation Yrotation Xrotation
                      JOINT RightHandRing3
                      {
                        OFFSET -4.33881 0.0 -4e-06
                        CHANNELS 3 Zrotation Yrotation Xrotation
                        JOINT RightHandRing4
                        {
                          OFFSET -2.654903 -4e-06 -4e-06
                          CHANNELS 3 Zrotation Yrotation Xrotation
                          JOINT RightHandRingEnd
                          {
                            OFFSET -1.935122 0.0 4e-06
                            CHANNELS 3 Zrotation Yrotation Xrotation
                          }
                        }
                      }
                    }
                  }
                  JOINT RightHandPinky1
                  {
                    OFFSET -2.866241 1.503904 -0.60527
                    CHANNELS 3 Zrotation Yrotation Xrotation
                    JOINT RightHandPinky2
                    {
                      OFFSET -5.553177 -2e-06 0.0
                      CHANNELS 3 Zrotation Yrotation Xrotation
                      JOINT RightHandPinky3
                      {
                        OFFSET -3.062664 -1e-06 -4e-06
                        CHANNELS 3 Zrotation Yrotation Xrotation
                        JOINT RightHandPinky4
                        {
                          OFFSET -1.546529 2e-06 4e-06
                          CHANNELS 3 Zrotation Yrotation Xrotation
                          JOINT RightHandPinkyEnd
                          {
                            OFFSET -1.952341 0.0 -4e-06
                            CHANNELS 3 Zrotation Yrotation Xrotation
                          }
                        }
                      }
                    }
                  }
                }
              }
            }
          }
        }
      }
    }
    JOINT LeftLeg
    {
      OFFSET -8.443107 2.567604 10.043214
      CHANNELS 3 Zrotation Yrotation Xrotation
      JOINT LeftShin
      {
        OFFSET 43.229198 1e-06 -1e-06
        CHANNELS 3 Zrotation Yrotation Xrotation
        JOINT LeftFoot
        {
          OFFSET 42.298611 1e-06 1e-06
          CHANNELS 3 Zrotation Yrotation Xrotation
          JOINT LeftToeBase
          {
            OFFSET 14.165858 1e-06 0.0
            CHANNELS 3 Zrotation Yrotation Xrotation
            JOINT LeftToeEnd
            {
              OFFSET 6.7141 -0.234461 0.0
              CHANNELS 3 Zrotation Yrotation Xrotation
            }
          }
        }
      }
    }
    JOINT RightLeg
    {
      OFFSET -8.303923 2.592729 -10.047278
      CHANNELS 3 Zrotation Yrotation Xrotation
      JOINT RightShin
      {
        OFFSET -43.369682 0.0 1e-06
        CHANNELS 3 Zrotation Yrotation Xrotation
        JOINT RightFoot
        {
          OFFSET -42.260784 4e-06 2e-06
          CHANNELS 3 Zrotation Yrotation Xrotation
          JOINT RightToeBase
          {
            OFFSET -14.222245 -2e-06 -1e-06
            CHANNELS 3 Zrotation Yrotation Xrotation
            JOINT RightToeEnd
            {
              OFFSET -6.660062 0.232574 -2e-06
              CHANNELS 3 Zrotation Yrotation Xrotation
            }
          }
        }
      }
    }
  }
}
MOTION
Frames: 4
Frame Time: 0.03333333333333333
0.0 0.0 0.0 0.0 -0.0 0.0 -1.442247 48.533157 6.569824 94.151405 -55.620564 88.934593 14.917289 -2.558571 -1.42009 -4.979615 -1.483375 -0.325696 19.051439 -2.514239 -2.894973 29.970881 -6.261287 1.697519 -2.65253 0.578753 -1.435185 -18.245892 -0.298585 -2.27648 6e-06 -0.0 0.0 -0.283299 0.014104 0.005334 -0.355823 0.225077 -0.057046 -0.400597 -0.18653 0.066555 -18.772764 -71.759201 20.237074 82.156975 -9.042436 -25.520201 13.688533 -1.041613 0.00886 41.211742 79.768295 45.332699 17.636625 -26.322729 52.411194 -19.466656 -14.395597 29.410385 -0.0 -8.774819 -2e-06 15.522991 -17.887835 6.653305 -0.609776 -1.795653 -3.889328 -4.807088 -11.046806 -2.937851 4e-06 -20.976011 0.0 -5.019969 -25.033552 -4.03188 5e-06 -1e-06 1e-06 -10.634534 -5.686968 -3.565587 10.573272 -17.922949 -3.113899 2e-06 -13.821205 1e-06 -0.501777 -31.181498 -4.027015 -11.133646 -59.256077 7.329387 -13.982714 -7.150198 -2.875041 13.772731 -8.401491 -3.218241 0.347733 -34.211544 0.771656 -0.963029 -17.73337 2.62102 -0.0 -0.0 0.0 -17.346416 -20.095213 -4.201783 21.757555 -1.638375 3.866428 1e-06 -6.338823 1e-06 -1.697589 -22.591738 -6.194005 0.0 -5e-06 -3e-06 173.310257 -68.967606 8.229618 85.934982 -8.662706 -30.845995 10.570085 -1.220089 -0.168409 18.500315 75.720207 16.898745 22.182116 -20.375891 49.933319 -16.701817 -16.74353 28.47653 -1e-06 -12.690601 -0.0 16.218372 -17.398407 2.758663 -0.10592 -1.513855 -4.275881 -5.039041 -5.612871 -2.953557 4e-06 -11.020523 -2e-06 -6.111297 -15.895329 -3.840471 -1e-06 -3e-06 1e-06 -10.283371 -5.680288 -4.341837 11.028296 -11.302406 -2.372633 -1.384269 -14.238582 -6.320122 -0.625438 -26.924189 -3.827601 -4.532927 -49.567505 -3.607721 -13.708525 -7.363473 -3.72094 18.141148 -14.052738 -3.242674 7e-06 -18.78727 -2e-06 -0.429711 -8.456039 2.555504 -0.0 0.0 -0.0 -15.923534 -20.094479 -5.473585 30.41921 -7.190825 1.735926 2e-06 -8.162922 0.0 -1.8619 -22.861467 -6.167942 -0.0 -2e-06 -1e-06 116.449318 -3.759425 3.998632 113.131226 0.160226 0.414736 -54.868305 9.234239 -5.569927 -8.739514 1.466881 2.436175 -0.999997 0.0 -0.0 -48.13406 -10.794146 1.416104 98.660461 -1.884079 0.110154 -52.921913 9.81591 -12.187199 -7.546953 0.456874 2.032579 -1.000003 -0.0 1e-06 
0.0 0.0 0.0 0.0 -0.0 0.0 -1.434452 48.562214 6.66044 93.845322 -55.74567 89.194145 14.82362 -2.478548 -1.40884 -5.064279 -1.40247 -0.278359 19.101061 -2.49523 -2.799144 30.184652 -6.381586 1.567852 -2.628893 0.59363 -1.485494 -18.02685 -0.2989 -2.322949 7e-06 -1e-06 -0.0 -0.278021 -0.021954 -0.004259 -0.350361 0.184647 -0.068836 -0.391197 -0.216782 0.056586 -18.802483 -71.833549 20.456047 82.661438 -8.687002 -25.382774 12.840137 -1.100572 -0.010226 43.11351 79.640907 46.939655 17.636621 -26.322737 52.411205 -19.466663 -14.395597 29.410395 -1e-06 -8.774821 -1e-06 15.464586 -17.929863 6.682355 -0.609776 -1.795653 -3.889328 -4.807087 -11.046809 -2.937851 4e-06 -20.976021 -0.0 -5.01997 -25.03356 -4.031878 6e-06 0.0 -1e-06 -10.634533 -5.686969 -3.565588 10.573272 -17.922953 -3.113902 2e-06 -13.821212 0.0 -0.501777 -31.181505 -4.027016 -11.06744 -59.383053 7.377978 -13.982712 -7.150198 -2.875042 13.772727 -8.401492 -3.218243 0.347733 -34.211555 0.771655 -0.963029 -17.73337 2.621019 -0.0 1e-06 -0.0 -17.346415 -20.095217 -4.201783 21.757555 -1.638376 3.866427 1e-06 -6.338826 0.0 -1.697588 -22.591753 -6.194006 -1e-06 -7e-06 -3e-06 173.256577 -68.892937 8.49013 85.935982 -8.483018 -30.985905 10.301084 -1.061763 -0.153146 19.363791 75.329102 17.34643 22.182121 -20.375891 49.933315 -16.701811 -16.743525 28.476526 -2e-06 -12.6906 -2e-06 16.196836 -17.330416 2.748687 -0.105919 -1.513856 -4.27588 -5.039041 -5.61287 -2.953557 5e-06 -11.020525 -2e-06 -6.111297 -15.895329 -3.840471 -1e-06 -2e-06 -0.0 -10.283369 -5.680287 -4.341839 11.028293 -11.302404 -2.372632 -1.384268 -14.238575 -6.320121 -0.625438 -26.924183 -3.8276 -4.489001 -49.656506 -3.55922 -13.708524 -7.363475 -3.720939 18.141148 -14.052739 -3.242673 7e-06 -18.78727 -2e-06 -0.429711 -8.456039 2.555504 -0.0 -1e-06 0.0 -15.923534 -20.094481 -5.473587 30.41921 -7.190828 1.735927 2e-06 -8.162925 0.0 -1.861901 -22.861469 -6.167941 0.0 -4e-06 -1e-06 116.37413 -3.814283 4.175694 113.031166 0.154863 0.447601 -54.773617 9.074241 -5.258781 -8.696796 1.481605 2.425453 -0.999997 0.0 -0.0 -48.115112 -10.730361 1.186217 98.481857 -1.878434 0.113541 -52.948956 9.699678 -12.058743 -7.323493 0.440572 2.048033 -1.000003 0.0 -1e-06 
0.0 0.0 0.0 0.0 -0.0 0.0 -1.406341 48.584785 6.75241 93.674751 -55.781586 89.36602 14.7179 -2.399187 -1.382846 -5.126084 -1.357844 -0.227873 19.194132 -2.456785 -2.759218 30.40983 -6.46831 1.414884 -2.61559 0.597727 -1.494387 -17.882692 -0.425914 -2.36959 6e-06 -0.0 -0.0 -0.272909 -0.041861 -0.008474 -0.408753 0.164485 -0.090228 -0.439577 -0.235587 0.066457 -18.333431 -71.848946 20.168121 82.822845 -8.470572 -24.947004 12.346424 -1.115936 -0.01648 42.604347 79.630409 46.072529 17.636627 -26.322733 52.411201 -19.466663 -14.395598 29.410395 -1e-06 -8.774821 -2e-06 15.465075 -17.909073 6.642706 -0.609777 -1.795654 -3.889328 -4.807087 -11.04681 -2.937851 4e-06 -20.976021 -1e-06 -5.019969 -25.03356 -4.031882 6e-06 0.0 1e-06 -10.634535 -5.686972 -3.565587 10.573275 -17.922953 -3.113902 3e-06 -13.821206 0.0 -0.501777 -31.181505 -4.027017 -10.897361 -59.455219 7.331954 -13.982713 -7.150199 -2.875042 13.77273 -8.401493 -3.218242 0.347734 -34.211555 0.771653 -0.963029 -17.73337 2.621019 -0.0 1e-06 -0.0 -17.34642 -20.095221 -4.201782 21.757559 -1.638375 3.866428 1e-06 -6.338823 0.0 -1.697589 -22.591749 -6.194008 -1e-06 -6e-06 -2e-06 173.591629 -68.845512 8.355924 85.711235 -8.32749 -30.964264 10.226624 -0.975329 -0.144657 20.037521 75.102882 18.070053 22.182121 -20.375893 49.933315 -16.701813 -16.743528 28.476528 -1e-06 -12.690603 -2e-06 16.173399 -17.242998 2.760582 -0.105919 -1.513857 -4.275881 -5.039041 -5.612872 -2.953556 4e-06 -11.020523 -2e-06 -6.111298 -15.895334 -3.840471 0.0 -2e-06 0.0 -10.283372 -5.68029 -4.341839 11.028295 -11.302406 -2.372632 -1.384269 -14.238577 -6.320121 -0.62544 -26.924187 -3.827601 -4.418897 -49.628605 -3.538374 -13.708526 -7.363477 -3.720939 18.141148 -14.052739 -3.242674 6e-06 -18.78727 -2e-06 -0.42971 -8.456038 2.555503 0.0 -1e-06 0.0 -15.923538 -20.094482 -5.473584 30.419214 -7.190822 1.735929 2e-06 -8.162925 0.0 -1.861903 -22.861467 -6.167942 0.0 -3e-06 -1e-06 116.433693 -3.809265 4.267386 112.955254 0.162567 0.476257 -54.937187 8.864129 -4.968351 -8.835686 1.488957 2.416015 -0.999997 0.0 0.0 -47.994667 -10.737431 1.056479 98.332352 -1.864174 0.130898 -53.123013 9.687459 -11.954906 -7.403108 0.427291 2.064124 -1.000002 0.0 0.0 
0.0 0.0 0.0 0.0 -0.0 0.0 -1.395796 48.588989 6.794016 93.574684 -55.797523 89.500984 14.633443 -2.334221 -1.369568 -5.168782 -1.338224 -0.198681 19.253098 -2.381785 -2.750879 30.58456 -6.56908 1.266999 -2.601964 0.568357 -1.519634 -17.803566 -0.552789 -2.367292 6e-06 0.0 -0.0 -0.270884 -0.054387 -0.00966 -0.473857 0.155324 -0.107638 -0.49559 -0.251706 0.079772 -17.858709 -71.909065 19.871288 82.740288 -8.346258 -24.577452 12.17506 -1.123186 -0.022364 42.337856 79.592567 45.75721 17.636631 -26.322729 52.411201 -19.466658 -14.395597 29.410393 -1e-06 -8.774821 -2e-06 15.459078 -17.867426 6.608459 -0.609777 -1.795654 -3.889328 -4.807088 -11.046808 -2.937851 4e-06 -20.976015 -1e-06 -5.019968 -25.033556 -4.031882 6e-06 -1e-06 0.0 -10.634534 -5.68697 -3.565588 10.573274 -17.922951 -3.113901 3e-06 -13.821206 -0.0 -0.501776 -31.181505 -4.027016 -10.795826 -59.477997 7.273944 -13.982714 -7.150198 -2.875043 13.772727 -8.401491 -3.218241 0.347733 -34.211544 0.771654 -0.963028 -17.733366 2.62102 -0.0 -0.0 0.0 -17.346416 -20.095217 -4.201784 21.757557 -1.638376 3.866428 2e-06 -6.338823 1e-06 -1.697588 -22.591738 -6.194007 -1e-06 -6e-06 -2e-06 173.956207 -68.761253 8.125388 85.463127 -8.255813 -30.843529 10.326523 -0.897768 -0.140776 20.400038 74.999962 18.591532 22.182117 -20.375895 49.933327 -16.701818 -16.74353 28.476536 -2e-06 -12.690601 0.0 16.176422 -17.200827 2.783797 -0.105919 -1.513856 -4.275883 -5.039042 -5.612872 -2.953556 5e-06 -11.020524 -3e-06 -6.111298 -15.89533 -3.840472 -0.0 -2e-06 -0.0 -10.28337 -5.680288 -4.341839 11.028296 -11.302406 -2.372634 -1.384268 -14.238581 -6.320122 -0.625438 -26.924192 -3.827601 -4.381919 -49.635517 -3.517581 -13.708525 -7.363475 -3.72094 18.14115 -14.052737 -3.242676 6e-06 -18.78727 -2e-06 -0.429711 -8.456039 2.555503 0.0 0.0 -0.0 -15.923536 -20.094482 -5.473587 30.419214 -7.190823 1.735926 2e-06 -8.162924 0.0 -1.861903 -22.861467 -6.167942 1e-06 -4e-06 -1e-06 116.467934 -3.781006 4.352381 112.97274 0.169892 0.495743 -55.293915 8.788731 -4.695263 -9.148844 1.494059 2.401712 -0.999995 -0.0 -0.0 -47.906166 -10.746322 1.011516 98.304306 -1.821945 0.143586 -53.471859 9.673328 -11.906871 -7.600278 0.421359 2.075313 -1.000001 0.0 0.0 
